<mxfile host="app.diagrams.net" agent="Mozilla/5.0 (Windows NT 10.0; Win64; x64) AppleWebKit/537.36 (KHTML, like Gecko) Chrome/136.0.0.0 Safari/537.36" version="26.3.0">
  <diagram name="Página-1" id="hWCPHpr9890_y0SDDMvV">
    <mxGraphModel dx="724" dy="1811" grid="1" gridSize="10" guides="1" tooltips="1" connect="1" arrows="1" fold="1" page="1" pageScale="1" pageWidth="827" pageHeight="1169" math="0" shadow="0">
      <root>
        <mxCell id="0" />
        <mxCell id="1" parent="0" />
        <mxCell id="wYTLx-t9b_W2EK-wvc39-1" value="Socio" style="rounded=0;whiteSpace=wrap;html=1;" vertex="1" parent="1">
          <mxGeometry x="360" y="250" width="120" height="60" as="geometry" />
        </mxCell>
        <mxCell id="wYTLx-t9b_W2EK-wvc39-2" value="Nombre" style="ellipse;whiteSpace=wrap;html=1;" vertex="1" parent="1">
          <mxGeometry x="190" y="250" width="120" height="80" as="geometry" />
        </mxCell>
        <mxCell id="wYTLx-t9b_W2EK-wvc39-3" value="Apellidos" style="ellipse;whiteSpace=wrap;html=1;" vertex="1" parent="1">
          <mxGeometry x="190" y="160" width="120" height="80" as="geometry" />
        </mxCell>
        <mxCell id="wYTLx-t9b_W2EK-wvc39-4" value="&lt;u&gt;Código de Socio&lt;/u&gt;" style="ellipse;whiteSpace=wrap;html=1;" vertex="1" parent="1">
          <mxGeometry x="190" y="70" width="120" height="80" as="geometry" />
        </mxCell>
        <mxCell id="wYTLx-t9b_W2EK-wvc39-5" value="Dirección" style="ellipse;whiteSpace=wrap;html=1;" vertex="1" parent="1">
          <mxGeometry x="190" y="340" width="120" height="80" as="geometry" />
        </mxCell>
        <mxCell id="wYTLx-t9b_W2EK-wvc39-6" value="Teléfono" style="ellipse;whiteSpace=wrap;html=1;" vertex="1" parent="1">
          <mxGeometry x="190" y="430" width="120" height="80" as="geometry" />
        </mxCell>
        <mxCell id="wYTLx-t9b_W2EK-wvc39-7" value="" style="endArrow=none;html=1;rounded=0;entryX=0;entryY=0.5;entryDx=0;entryDy=0;exitX=1;exitY=0.5;exitDx=0;exitDy=0;" edge="1" parent="1" source="wYTLx-t9b_W2EK-wvc39-6" target="wYTLx-t9b_W2EK-wvc39-1">
          <mxGeometry width="50" height="50" relative="1" as="geometry">
            <mxPoint x="330" y="410" as="sourcePoint" />
            <mxPoint x="380" y="360" as="targetPoint" />
          </mxGeometry>
        </mxCell>
        <mxCell id="wYTLx-t9b_W2EK-wvc39-8" value="" style="endArrow=none;html=1;rounded=0;entryX=0;entryY=0.5;entryDx=0;entryDy=0;exitX=1;exitY=0.5;exitDx=0;exitDy=0;" edge="1" parent="1" source="wYTLx-t9b_W2EK-wvc39-4" target="wYTLx-t9b_W2EK-wvc39-1">
          <mxGeometry width="50" height="50" relative="1" as="geometry">
            <mxPoint x="370" y="180" as="sourcePoint" />
            <mxPoint x="420" y="130" as="targetPoint" />
          </mxGeometry>
        </mxCell>
        <mxCell id="wYTLx-t9b_W2EK-wvc39-9" value="" style="endArrow=none;html=1;rounded=0;entryX=0;entryY=0.5;entryDx=0;entryDy=0;exitX=1;exitY=0.5;exitDx=0;exitDy=0;" edge="1" parent="1" source="wYTLx-t9b_W2EK-wvc39-5" target="wYTLx-t9b_W2EK-wvc39-1">
          <mxGeometry width="50" height="50" relative="1" as="geometry">
            <mxPoint x="300" y="300" as="sourcePoint" />
            <mxPoint x="350" y="250" as="targetPoint" />
          </mxGeometry>
        </mxCell>
        <mxCell id="wYTLx-t9b_W2EK-wvc39-10" value="" style="endArrow=none;html=1;rounded=0;exitX=1;exitY=0.5;exitDx=0;exitDy=0;entryX=0;entryY=0.5;entryDx=0;entryDy=0;" edge="1" parent="1" source="wYTLx-t9b_W2EK-wvc39-3" target="wYTLx-t9b_W2EK-wvc39-1">
          <mxGeometry width="50" height="50" relative="1" as="geometry">
            <mxPoint x="380" y="190" as="sourcePoint" />
            <mxPoint x="430" y="140" as="targetPoint" />
          </mxGeometry>
        </mxCell>
        <mxCell id="wYTLx-t9b_W2EK-wvc39-11" value="" style="endArrow=none;html=1;rounded=0;exitX=1;exitY=0.5;exitDx=0;exitDy=0;entryX=0;entryY=0.5;entryDx=0;entryDy=0;" edge="1" parent="1" source="wYTLx-t9b_W2EK-wvc39-2" target="wYTLx-t9b_W2EK-wvc39-1">
          <mxGeometry width="50" height="50" relative="1" as="geometry">
            <mxPoint x="390" y="160" as="sourcePoint" />
            <mxPoint x="440" y="110" as="targetPoint" />
          </mxGeometry>
        </mxCell>
        <mxCell id="wYTLx-t9b_W2EK-wvc39-12" value="Publicacion" style="rounded=0;whiteSpace=wrap;html=1;" vertex="1" parent="1">
          <mxGeometry x="690" y="50" width="120" height="60" as="geometry" />
        </mxCell>
        <mxCell id="wYTLx-t9b_W2EK-wvc39-13" value="DER con notacino ISO o notacion depata de gallo" style="whiteSpace=wrap;html=1;aspect=fixed;" vertex="1" parent="1">
          <mxGeometry x="120" y="610" width="80" height="80" as="geometry" />
        </mxCell>
        <mxCell id="wYTLx-t9b_W2EK-wvc39-14" value="Copia de Publicación" style="rounded=0;whiteSpace=wrap;html=1;" vertex="1" parent="1">
          <mxGeometry x="690" y="250" width="120" height="60" as="geometry" />
        </mxCell>
        <mxCell id="wYTLx-t9b_W2EK-wvc39-15" value="presta" style="triangle;whiteSpace=wrap;html=1;rotation=0;" vertex="1" parent="1">
          <mxGeometry x="560" y="240" width="60" height="80" as="geometry" />
        </mxCell>
        <mxCell id="wYTLx-t9b_W2EK-wvc39-17" value="&lt;u&gt;Código de copia&lt;/u&gt;" style="ellipse;whiteSpace=wrap;html=1;" vertex="1" parent="1">
          <mxGeometry x="690" y="370" width="120" height="80" as="geometry" />
        </mxCell>
        <mxCell id="wYTLx-t9b_W2EK-wvc39-19" value="" style="endArrow=none;html=1;rounded=0;entryX=0.5;entryY=1;entryDx=0;entryDy=0;exitX=0.5;exitY=0;exitDx=0;exitDy=0;" edge="1" parent="1" source="wYTLx-t9b_W2EK-wvc39-17" target="wYTLx-t9b_W2EK-wvc39-14">
          <mxGeometry width="50" height="50" relative="1" as="geometry">
            <mxPoint x="610" y="400" as="sourcePoint" />
            <mxPoint x="660" y="350" as="targetPoint" />
          </mxGeometry>
        </mxCell>
        <mxCell id="wYTLx-t9b_W2EK-wvc39-21" value="&lt;u&gt;Código de publicación&lt;/u&gt;" style="ellipse;whiteSpace=wrap;html=1;" vertex="1" parent="1">
          <mxGeometry x="860" width="120" height="80" as="geometry" />
        </mxCell>
        <mxCell id="wYTLx-t9b_W2EK-wvc39-22" value="Nombre" style="ellipse;whiteSpace=wrap;html=1;" vertex="1" parent="1">
          <mxGeometry x="860" y="100" width="120" height="80" as="geometry" />
        </mxCell>
        <mxCell id="wYTLx-t9b_W2EK-wvc39-23" value="Año" style="ellipse;whiteSpace=wrap;html=1;" vertex="1" parent="1">
          <mxGeometry x="860" y="-100" width="120" height="80" as="geometry" />
        </mxCell>
        <mxCell id="wYTLx-t9b_W2EK-wvc39-24" value="Resumen" style="ellipse;whiteSpace=wrap;html=1;" vertex="1" parent="1">
          <mxGeometry x="860" y="200" width="120" height="80" as="geometry" />
        </mxCell>
        <mxCell id="wYTLx-t9b_W2EK-wvc39-25" value="" style="endArrow=none;html=1;rounded=0;entryX=0;entryY=0.5;entryDx=0;entryDy=0;exitX=1;exitY=0.5;exitDx=0;exitDy=0;" edge="1" parent="1" source="wYTLx-t9b_W2EK-wvc39-12" target="wYTLx-t9b_W2EK-wvc39-23">
          <mxGeometry width="50" height="50" relative="1" as="geometry">
            <mxPoint x="770" y="-70" as="sourcePoint" />
            <mxPoint x="820" y="-120" as="targetPoint" />
          </mxGeometry>
        </mxCell>
        <mxCell id="wYTLx-t9b_W2EK-wvc39-26" value="" style="endArrow=none;html=1;rounded=0;entryX=0;entryY=0.5;entryDx=0;entryDy=0;exitX=1;exitY=0.5;exitDx=0;exitDy=0;" edge="1" parent="1" source="wYTLx-t9b_W2EK-wvc39-12" target="wYTLx-t9b_W2EK-wvc39-21">
          <mxGeometry width="50" height="50" relative="1" as="geometry">
            <mxPoint x="1010" y="-130" as="sourcePoint" />
            <mxPoint x="1060" y="-180" as="targetPoint" />
          </mxGeometry>
        </mxCell>
        <mxCell id="wYTLx-t9b_W2EK-wvc39-27" value="" style="endArrow=none;html=1;rounded=0;entryX=0;entryY=0.5;entryDx=0;entryDy=0;exitX=1;exitY=0.5;exitDx=0;exitDy=0;" edge="1" parent="1" source="wYTLx-t9b_W2EK-wvc39-12" target="wYTLx-t9b_W2EK-wvc39-22">
          <mxGeometry width="50" height="50" relative="1" as="geometry">
            <mxPoint x="790" y="180" as="sourcePoint" />
            <mxPoint x="840" y="130" as="targetPoint" />
          </mxGeometry>
        </mxCell>
        <mxCell id="wYTLx-t9b_W2EK-wvc39-28" value="" style="endArrow=none;html=1;rounded=0;entryX=0;entryY=0.5;entryDx=0;entryDy=0;exitX=1;exitY=0.5;exitDx=0;exitDy=0;" edge="1" parent="1" source="wYTLx-t9b_W2EK-wvc39-12" target="wYTLx-t9b_W2EK-wvc39-24">
          <mxGeometry width="50" height="50" relative="1" as="geometry">
            <mxPoint x="760" y="220" as="sourcePoint" />
            <mxPoint x="810" y="170" as="targetPoint" />
          </mxGeometry>
        </mxCell>
      </root>
    </mxGraphModel>
  </diagram>
</mxfile>
